<?xml version="1.0" standalone="no"?>
<!DOCTYPE svg PUBLIC "-//W3C//DTD SVG 20010904//EN"
 "http://www.w3.org/TR/2001/REC-SVG-20010904/DTD/svg10.dtd">
<svg version="1.0" xmlns="http://www.w3.org/2000/svg"
 width="512.000000pt" height="512.000000pt" viewBox="0 0 512.000000 512.000000"
 preserveAspectRatio="xMidYMid meet">

<g transform="translate(0.000000,512.000000) scale(0.100000,-0.100000)"
fill="#ffffff" stroke="none">
<path d="M1973 4745 c-126 -34 -227 -114 -281 -221 -40 -81 -52 -144 -52 -284
l0 -119 -445 -3 -445 -3 -32 -33 c-28 -28 -33 -39 -33 -82 0 -43 5 -54 32 -82
29 -29 40 -33 100 -36 l68 -4 123 -1536 c68 -846 128 -1566 133 -1602 26 -178
165 -329 340 -369 60 -14 2098 -14 2158 0 175 40 313 191 340 369 5 36 65 756
133 1602 l123 1536 68 4 c60 3 71 7 100 36 27 28 32 39 32 82 0 43 -5 54 -33
82 l-32 33 -445 3 -445 3 0 119 c0 65 -5 143 -11 172 -35 164 -173 302 -337
337 -84 18 -1091 14 -1159 -4z m1170 -254 c21 -13 50 -42 65 -64 25 -38 27
-49 30 -174 l4 -133 -681 0 -681 0 0 113 c0 61 5 129 11 150 13 47 76 113 121
126 20 6 246 9 563 8 l530 -2 38 -24z m857 -613 c-5 -114 -262 -3131 -268
-3149 -16 -41 -63 -91 -107 -110 -38 -18 -92 -19 -1065 -19 -973 0 -1027 1
-1065 19 -44 19 -91 69 -107 110 -6 18 -265 3054 -268 3149 0 1 648 2 1440 2
792 0 1440 -1 1440 -2z"/>
<path d="M1875 3151 c-11 -5 -31 -21 -45 -36 l-25 -27 0 -849 0 -849 33 -32
c28 -28 39 -33 82 -33 43 0 54 5 82 33 l33 32 0 850 0 850 -31 31 c-33 33 -92
46 -129 30z"/>
<path d="M2515 3151 c-11 -5 -31 -21 -45 -36 l-25 -27 0 -849 0 -849 33 -32
c28 -28 39 -33 82 -33 43 0 54 5 82 33 l33 32 0 850 0 850 -31 31 c-33 33 -92
46 -129 30z"/>
<path d="M3155 3151 c-11 -5 -31 -21 -45 -36 l-25 -27 0 -849 0 -849 33 -32
c28 -28 39 -33 82 -33 43 0 54 5 82 33 l33 32 0 850 0 850 -31 31 c-33 33 -92
46 -129 30z"/>
</g>
</svg>
